<svg xmlns="http://www.w3.org/2000/svg" width="48" height="32" viewBox="0 0 48 32">
  <rect width="48" height="32" rx="4" fill="#F9F9F9"/>
  <path d="M29.5312 10H18.4688V22H29.5312V10Z" fill="#FF5F00"/>
  <path d="M19.1875 16C19.1875 13.5938 20.3438 11.4688 22.1562 10C20.9062 9.03125 19.3125 8.5 17.625 8.5C13.4688 8.5 10.125 11.8438 10.125 16C10.125 20.1562 13.4688 23.5 17.625 23.5C19.3125 23.5 20.9062 22.9688 22.1562 22C20.3438 20.5312 19.1875 18.4062 19.1875 16Z" fill="#EB001B"/>
  <path d="M37.875 16C37.875 20.1562 34.5312 23.5 30.375 23.5C28.6875 23.5 27.0938 22.9688 25.8438 22C27.6562 20.5312 28.8125 18.4062 28.8125 16C28.8125 13.5938 27.6562 11.4688 25.8438 10C27.0938 9.03125 28.6875 8.5 30.375 8.5C34.5312 8.5 37.875 11.8438 37.875 16Z" fill="#F79E1B"/>
</svg>
