<svg xmlns="http://www.w3.org/2000/svg" width="48" height="32" viewBox="0 0 48 32">
  <rect width="48" height="32" rx="4" fill="#F9F9F9"/>
  <path d="M18.2773 12.3789L14.5898 20.3164H12.4336L10.6211 14.0977C10.5273 13.7695 10.4453 13.6289 10.1562 13.4883C9.66406 13.2539 8.86719 13.0312 8.17969 12.9023L8.25 12.3789H11.7305C12.2227 12.3789 12.6562 12.6914 12.75 13.207L13.6875 18.0664L16.0312 12.3789H18.2773ZM26.3789 17.3555C26.3906 15.2461 23.4844 15.1055 23.5078 14.1211C23.5195 13.8086 23.8203 13.4766 24.4688 13.3945C24.7969 13.3477 25.6523 13.3125 26.625 13.7344L27.0117 12.0273C26.4141 11.8164 25.6641 11.6133 24.7266 11.6133C22.6172 11.6133 21.1172 12.7383 21.1055 14.3398C21.0938 15.5234 22.1367 16.1836 22.9219 16.5703C23.7305 16.9688 24.0117 17.2227 24.0117 17.5703C24 18.0742 23.3984 18.3047 22.8359 18.3164C21.8203 18.3398 21.2109 18.0508 20.7188 17.8398L20.3203 19.6055C20.8125 19.8164 21.7344 20 22.6875 20.0117C24.9258 20.0117 26.3672 18.9102 26.3789 17.3555ZM31.9453 20.3164H34.0078L32.0859 12.3789H30.2969C29.8633 12.3789 29.4883 12.6445 29.3359 13.043L26.1328 20.3164H28.3789L28.8359 18.9336H31.5938L31.9453 20.3164ZM29.4844 17.3555L30.5859 14.3867L31.2188 17.3555H29.4844ZM22.5 12.3789L20.6836 20.3164H18.5391L20.3555 12.3789H22.5Z" fill="#172B85"/>
</svg>
